REM DIRINDEX 1\2,1\3,1\4,1\5
REM DIRNAME folder01,folder02,folder03,folder04,folder05
TITLE ""
FILE "1800_098.mp3" MP3
  TRACK 01 AUDIO
    TITLE "2:cjc044_2693"
    INDEX 01 00:00:00
  TRACK 02 AUDIO
    TITLE "0:"
    INDEX 01 00:01:11
  TRACK 03 AUDIO
    TITLE "3:cjc044_2694"
    INDEX 01 00:01:66
  TRACK 04 AUDIO
    TITLE "0:"
    INDEX 01 00:03:15
  TRACK 05 AUDIO
    TITLE "4:cjc044_2695"
    INDEX 01 00:03:70
  TRACK 06 AUDIO
    TITLE "0:"
    INDEX 01 00:05:22
  TRACK 07 AUDIO
    TITLE "5:cjc044_2696"
    INDEX 01 00:05:73
  TRACK 08 AUDIO
    TITLE "0:"
    INDEX 01 00:09:10
  TRACK 09 AUDIO
    TITLE "2:cjc044_2697"
    INDEX 01 00:10:72
  TRACK 10 AUDIO
    TITLE "0:"
    INDEX 01 00:12:22
  TRACK 11 AUDIO
    TITLE "3:cjc044_2698"
    INDEX 01 00:13:06
  TRACK 12 AUDIO
    TITLE "0:"
    INDEX 01 00:14:11
  TRACK 13 AUDIO
    TITLE "4:cjc044_2699"
    INDEX 01 00:14:68
  TRACK 14 AUDIO
    TITLE "0:"
    INDEX 01 00:16:20
  TRACK 15 AUDIO
    TITLE "5:cjc044_2700"
    INDEX 01 00:16:67
  TRACK 16 AUDIO
    TITLE "0:"
    INDEX 01 00:20:73
  TRACK 17 AUDIO
    TITLE "2:cjc044_2701"
    INDEX 01 00:22:54
  TRACK 18 AUDIO
    TITLE "0:"
    INDEX 01 00:23:67
  TRACK 19 AUDIO
    TITLE "3:cjc044_2702"
    INDEX 01 00:24:51
  TRACK 20 AUDIO
    TITLE "0:"
    INDEX 01 00:25:64
  TRACK 21 AUDIO
    TITLE "4:cjc044_2703"
    INDEX 01 00:26:42
  TRACK 22 AUDIO
    TITLE "0:"
    INDEX 01 00:27:59
  TRACK 23 AUDIO
    TITLE "5:cjc044_2704"
    INDEX 01 00:28:31
  TRACK 24 AUDIO
    TITLE "0:"
    INDEX 01 00:31:59
  TRACK 25 AUDIO
    TITLE "2:cjc044_2705"
    INDEX 01 00:33:40
  TRACK 26 AUDIO
    TITLE "0:"
    INDEX 01 00:34:63
  TRACK 27 AUDIO
    TITLE "3:cjc044_2706"
    INDEX 01 00:35:43
  TRACK 28 AUDIO
    TITLE "0:"
    INDEX 01 00:36:46
  TRACK 29 AUDIO
    TITLE "4:cjc044_2707"
    INDEX 01 00:37:32
  TRACK 30 AUDIO
    TITLE "0:"
    INDEX 01 00:38:53
  TRACK 31 AUDIO
    TITLE "5:cjc044_2708"
    INDEX 01 00:39:33
  TRACK 32 AUDIO
    TITLE "0:"
    INDEX 01 00:42:12
  TRACK 33 AUDIO
    TITLE "2:cjc044_2709"
    INDEX 01 00:43:70
  TRACK 34 AUDIO
    TITLE "0:"
    INDEX 01 00:45:35
  TRACK 35 AUDIO
    TITLE "3:cjc044_2710"
    INDEX 01 00:46:19
  TRACK 36 AUDIO
    TITLE "0:"
    INDEX 01 00:47:34
  TRACK 37 AUDIO
    TITLE "4:cjc044_2711"
    INDEX 01 00:48:14
  TRACK 38 AUDIO
    TITLE "0:"
    INDEX 01 00:49:49
  TRACK 39 AUDIO
    TITLE "5:cjc044_2712"
    INDEX 01 00:50:23
  TRACK 40 AUDIO
    TITLE "0:"
    INDEX 01 00:53:19
  TRACK 41 AUDIO
    TITLE "2:cjc044_2713"
    INDEX 01 00:55:04
  TRACK 42 AUDIO
    TITLE "0:"
    INDEX 01 00:56:59
  TRACK 43 AUDIO
    TITLE "3:cjc044_2714"
    INDEX 01 00:57:39
  TRACK 44 AUDIO
    TITLE "0:"
    INDEX 01 00:59:06
  TRACK 45 AUDIO
    TITLE "4:cjc044_2715"
    INDEX 01 00:59:63
  TRACK 46 AUDIO
    TITLE "0:"
    INDEX 01 01:01:42
  TRACK 47 AUDIO
    TITLE "5:cjc044_2716"
    INDEX 01 01:02:26
  TRACK 48 AUDIO
    TITLE "0:"
    INDEX 01 01:05:42
  TRACK 49 AUDIO
    TITLE "2:cjc044_2717"
    INDEX 01 01:07:23
  TRACK 50 AUDIO
    TITLE "0:"
    INDEX 01 01:08:29
  TRACK 51 AUDIO
    TITLE "3:cjc044_2718"
    INDEX 01 01:09:16
  TRACK 52 AUDIO
    TITLE "0:"
    INDEX 01 01:10:06
  TRACK 53 AUDIO
    TITLE "4:cjc044_2719"
    INDEX 01 01:10:67
  TRACK 54 AUDIO
    TITLE "0:"
    INDEX 01 01:11:72
  TRACK 55 AUDIO
    TITLE "5:cjc044_2720"
    INDEX 01 01:12:52
  TRACK 56 AUDIO
    TITLE "0:"
    INDEX 01 01:15:48
  TRACK 57 AUDIO
    TITLE "2:cjc044_2721"
    INDEX 01 01:17:39
  TRACK 58 AUDIO
    TITLE "0:"
    INDEX 01 01:18:58
  TRACK 59 AUDIO
    TITLE "3:cjc044_2722"
    INDEX 01 01:19:44
  TRACK 60 AUDIO
    TITLE "0:"
    INDEX 01 01:21:23
  TRACK 61 AUDIO
    TITLE "4:cjc044_2723"
    INDEX 01 01:22:09
  TRACK 62 AUDIO
    TITLE "0:"
    INDEX 01 01:23:28
  TRACK 63 AUDIO
    TITLE "5:cjc044_2724"
    INDEX 01 01:24:08
  TRACK 64 AUDIO
    TITLE "0:"
    INDEX 01 01:27:36
